<svg id="SvgjsSvg1001" width="288" height="288" xmlns="http://www.w3.org/2000/svg" version="1.1" xmlns:xlink="http://www.w3.org/1999/xlink" xmlns:svgjs="http://svgjs.com/svgjs"><defs id="SvgjsDefs1002"></defs><g id="SvgjsG1008" transform="matrix(1,0,0,1,0,0)"><svg xmlns="http://www.w3.org/2000/svg" width="288" height="288" viewBox="0 0 48 48"><path fill="none" d="M0 0h48v48h-48z"></path><path d="M29.17 16l-5.17 5.17-5.17-5.17-2.83 2.83 5.17 5.17-5.17 5.17 2.83 2.83 5.17-5.17 5.17 5.17 2.83-2.83-5.17-5.17 5.17-5.17-2.83-2.83zm-5.17-12c-11.05 0-20 8.95-20 20s8.95 20 20 20 20-8.95 20-20-8.95-20-20-20zm0 36c-8.82 0-16-7.18-16-16s7.18-16 16-16 16 7.18 16 16-7.18 16-16 16z" fill="#5f9ea0" class="color000 svgShape"></path></svg></g></svg>