<svg id="SvgjsSvg1022" width="288" height="288" xmlns="http://www.w3.org/2000/svg" version="1.1" xmlns:xlink="http://www.w3.org/1999/xlink" xmlns:svgjs="http://svgjs.com/svgjs"><defs id="SvgjsDefs1023"></defs><g id="SvgjsG1024" transform="matrix(1,0,0,1,0,0)"><svg xmlns="http://www.w3.org/2000/svg" xmlns:svgjs="http://svgjs.com/svgjs" xmlns:xlink="http://www.w3.org/1999/xlink" width="288" height="288"><svg xmlns="http://www.w3.org/2000/svg" width="288" height="288" enable-background="new 0 0 47.5 47.5" viewBox="0 0 47.5 47.5"><defs><clipPath id="a" clipPathUnits="userSpaceOnUse"><path d="M 0,38 38,38 38,0 0,0 0,38 Z" class="color000 svgShape" fill="#000000"></path></clipPath></defs><g class="color000 svgShape" clip-path="url(#a)" transform="matrix(1.25 0 0 -1.25 0 47.5)" fill="#000000"><path fill="#5f9ea0" d="m 0,0 c 0,0 -2,0 -2,2 l 0,32 c 0,0 0,2 2,2 l 32.031,0 C 34,36 34,34 34,34 L 34,2 C 34,2 34,0 32,0 L 0,0 Z" class="color292f33 svgShape color5f9ea0" transform="translate(3 1)"></path><path fill="#ffffff" d="m 0,0 c 0,0 0,-1 1,-1 l 5,0 c 1,0 1,1 1,1 L 7,28 0,28 0,0 Z" class="colore1e8ed svgShape colorfff" transform="translate(20 4)"></path><path fill="#ffffff" d="m 0,0 0,-28 c 0,0 0,-1 1,-1 l 4,0 c 1,0 1,1 1,1 L 6,0 0,0 Z" class="colore1e8ed svgShape colorfff" transform="translate(29 32)"></path><path fill="#ffffff" d="m 0,0 c 0,0 0,-1 1,-1 l 5,0 c 1,0 1,1 1,1 L 7,28 0,28 0,0 Z" class="colore1e8ed svgShape colorfff" transform="translate(11 4)"></path><path fill="#ffffff" d="m 0,0 c 0,0 0,-1 1,-1 l 4,0 c 1,0 1,1 1,1 L 6,28 0,28 0,0 Z" class="colore1e8ed svgShape colorfff" transform="translate(3 4)"></path><path fill="#5f9ea0" d="m 0,0 c 0,0 0,-1 -1,-1 l -4,0 c -1,0 -1,1 -1,1 l 0,20 6,0 0,-20 z" class="color292f33 svgShape color5f9ea0" transform="translate(31 14)"></path><path fill="#5f9ea0" d="m 0,0 c 0,0 0,-1 -1,-1 l -4,0 c -1,0 -1,1 -1,1 l 0,20 6,0 0,-20 z" class="color292f33 svgShape color5f9ea0" transform="translate(22 14)"></path><path fill="#5f9ea0" d="m 0,0 c 0,0 0,-1 -1,-1 l -4,0 c -1,0 -1,1 -1,1 l 0,20 6,0 0,-20 z" class="color292f33 svgShape color5f9ea0" transform="translate(13 14)"></path></g></svg></svg></g></svg>